<svg width="16" height="24" viewBox="0 0 16 24" fill="none" xmlns="http://www.w3.org/2000/svg">
<g clip-path="url(#clip0_392_2146)">
<path fill-rule="evenodd" clip-rule="evenodd" d="M15.26 7.84396C15.4827 7.6213 15.4827 7.26028 15.26 7.03762C15.0373 6.81496 14.6763 6.81496 14.4537 7.03762L13.8835 7.60778L9.89243 11.5989C9.66978 11.8215 9.66978 12.1825 9.89243 12.4052L13.8835 16.3963L14.4537 16.9664C14.6763 17.1891 15.0373 17.1891 15.26 16.9664C15.4827 16.7438 15.4827 16.3828 15.26 16.1601L14.6899 15.59L11.1019 12.002L14.6899 8.41411L15.26 7.84396ZM11.8391 3.28271C12.0617 3.06005 12.0617 2.69904 11.8391 2.47638C11.6164 2.25372 11.2554 2.25372 11.0327 2.47638L1.91026 11.5989C1.6876 11.8215 1.6876 12.1825 1.91025 12.4052L11.0327 21.5277C11.2554 21.7503 11.6164 21.7503 11.8391 21.5277C12.0617 21.305 12.0617 20.944 11.8391 20.7214L3.11974 12.002L11.8391 3.28271Z" fill="#8997A5"/>
</g>
<defs>
<clipPath id="clip0_392_2146">
<rect width="22.8062" height="15.9644" fill="white" transform="translate(16 0.599121) rotate(90)"/>
</clipPath>
</defs>
</svg>
