<svg width="24" height="24" viewBox="0 0 24 24" fill="none" xmlns="http://www.w3.org/2000/svg">
<g clip-path="url(#clip0_2104_5711)">
<path d="M12.0011 11.9101C11.0983 10.4603 11.1302 8.64415 12.0011 7.24219C12.3357 7.77854 12.5534 8.38924 12.6331 9.03712C12.7605 10.0514 12.5322 11.0551 12.0011 11.9101Z" fill="#18527D"/>
<path d="M15.7858 16.7797L15.4884 17.162C15.3238 17.3745 15.138 17.5709 14.9415 17.7462C14.2724 18.341 13.4439 18.7233 12.5358 18.8348C12.3606 18.8561 12.1853 18.8667 12.0101 18.8667C11.8349 18.8667 11.6596 18.8561 11.4844 18.8348C10.5763 18.7233 9.74785 18.341 9.07874 17.7462C8.88225 17.5709 8.69638 17.3745 8.53176 17.162L8.23438 16.7797L9.80627 14.767L10.4807 15.6273C10.8099 16.0468 11.272 16.3071 11.7924 16.3708C11.8561 16.3814 11.9411 16.3814 12.0048 16.3867C12.0845 16.3867 12.1641 16.3814 12.2385 16.3708C12.7589 16.3071 13.2209 16.0468 13.5448 15.6326L14.2246 14.7617L15.7858 16.7797Z" fill="#0087E2"/>
<path d="M4.22656 11.5015C4.36463 11.7829 4.52926 12.0537 4.72574 12.3086L6.65344 14.778L8.22533 12.7653L6.67999 10.7845C6.35605 10.3703 6.21798 9.86052 6.28171 9.3401C6.32419 8.98961 6.45695 8.65505 6.66937 8.37891L4.22656 11.5015Z" fill="#0087E2"/>
<path d="M5.98624 15.6386C5.6623 16.0529 5.2003 16.3131 4.67987 16.3768C4.15945 16.4405 3.64964 16.2971 3.23543 15.9785C2.82121 15.6599 2.561 15.1926 2.49728 14.6721C2.43355 14.1517 2.57162 13.6366 2.89556 13.2277L4.2391 11.5071C3.86737 10.7477 3.72399 9.89274 3.8302 9.03245C3.9311 8.23588 4.23379 7.49242 4.71173 6.87109L0.941315 11.6983C0.213783 12.6329 -0.110154 13.7959 0.033228 14.9695C0.17661 16.1485 0.77138 17.1946 1.70602 17.9275C2.49197 18.5435 3.44254 18.8674 4.43028 18.8674C4.61084 18.8674 4.7967 18.8568 4.98257 18.8355C6.16149 18.6922 7.20765 18.0974 7.94049 17.1627L8.23787 16.7804L6.66598 14.7677L5.98624 15.6386Z" fill="#FFBE1D"/>
<path d="M17.3797 8.42578C17.5656 8.6913 17.6824 9.00993 17.7249 9.33918C17.7886 9.8596 17.6452 10.3694 17.3266 10.7836L15.7813 12.7697L17.3531 14.7824L19.2808 12.313C19.4773 12.0634 19.6473 11.782 19.7853 11.5058L17.3797 8.42578Z" fill="#0087E2"/>
<path d="M22.2925 17.9246C21.48 18.5566 20.5188 18.8646 19.5682 18.8646C18.2459 18.8646 16.9395 18.2804 16.0633 17.1599L15.75 16.7563L17.3219 14.7437L18.0176 15.6358C18.6814 16.4855 19.9134 16.6395 20.7684 15.9757C21.1826 15.6518 21.4428 15.1898 21.5065 14.6693C21.5703 14.1489 21.4269 13.6391 21.1082 13.2249L19.7594 11.4937C20.1311 10.7343 20.2745 9.87931 20.1683 9.01902C20.0727 8.22776 19.77 7.49492 19.3027 6.87891L23.0625 11.6955C24.5653 13.6285 24.2202 16.4218 22.2925 17.9246Z" fill="#18527D"/>
<path d="M12.0013 11.9078C11.9163 12.0459 11.826 12.1787 11.7251 12.3061L9.79742 14.7755L8.22553 12.7628L9.77087 10.782C10.0948 10.3678 10.2329 9.858 10.1692 9.33757C10.1054 8.81715 9.84522 8.35514 9.431 8.0312C9.01679 7.70726 8.50698 7.56919 7.98656 7.63292C7.63607 7.6754 7.31213 7.80816 7.0413 8.02058C6.90854 8.12148 6.7864 8.23831 6.6855 8.37638L4.23207 11.5095C3.86034 10.7448 3.71696 9.89517 3.82317 9.03488C3.92406 8.23831 4.22676 7.49485 4.7047 6.87352C4.7047 6.87352 4.89057 6.64517 4.9596 6.57083C5.70307 5.76895 6.62708 5.30163 7.68386 5.17418C8.85747 5.0308 10.0205 5.34942 10.9551 6.08227C11.3746 6.41151 11.7251 6.80449 12.0013 7.24525C11.1357 8.6419 11.1038 10.4581 12.0013 11.9078Z" fill="#00B4E5"/>
<path d="M19.7692 11.5108L17.4538 8.54223C17.3317 8.38822 17.1458 8.17581 16.9812 8.03242C16.6307 7.76159 16.2059 7.61821 15.7757 7.61821C15.3562 7.61821 14.9314 7.75097 14.5703 8.03242C13.7206 8.69623 13.5666 9.92825 14.2304 10.7832L15.781 12.7693L14.2091 14.782L12.2761 12.3073C12.1752 12.1799 12.085 12.0471 12 11.9091C12.531 11.0541 12.7541 10.0451 12.6319 9.03079C12.5523 8.38291 12.3346 7.77752 12.0053 7.23586C12.2761 6.8004 12.6213 6.40743 13.0462 6.07287C14.6818 4.79305 16.9228 4.84615 18.5053 6.07287C18.962 6.42336 19.3125 6.89068 19.3125 6.89068C19.7798 7.50669 20.0825 8.23953 20.1781 9.03079C20.2843 9.89639 20.1356 10.7461 19.7692 11.5108Z" fill="#0E6CA0"/>
<path d="M9.80004 14.7705L8.22814 16.7831L6.65625 14.7705L8.22814 12.7578L9.80004 14.7705Z" fill="#18527D"/>
<path d="M17.3522 14.7705L15.7803 16.7884L14.2031 14.7705L15.7803 12.7578L17.3522 14.7705Z" fill="#103254"/>
<path d="M23.5536 6.78467C23.5434 6.78211 23.5357 6.76935 23.5281 6.74636C23.5281 6.73104 23.523 6.71062 23.523 6.67997L23.5179 6.57017C23.5153 6.51655 23.5077 6.4808 23.4872 6.45527C23.4745 6.43995 23.4566 6.42207 23.4362 6.41186C23.4617 6.39398 23.4847 6.37355 23.5 6.34802C23.523 6.31227 23.5357 6.26886 23.5357 6.21524C23.5357 6.1131 23.4923 6.0416 23.4081 6.0033C23.3647 5.98287 23.3085 5.97266 23.2446 5.97266L22.8438 5.97266L22.8438 6.81786L22.8438 6.83829L22.8616 6.83829L22.974 6.83829L22.9944 6.83829L22.9944 6.81786L22.9944 6.48335L23.2293 6.48335C23.2702 6.48335 23.3034 6.48846 23.3238 6.49612C23.3519 6.51144 23.3698 6.54209 23.3723 6.5906L23.38 6.72849C23.3825 6.76169 23.3851 6.78211 23.3851 6.79743C23.3876 6.8102 23.3902 6.82042 23.3953 6.83063L23.4004 6.84084L23.4106 6.84084L23.5485 6.84084L23.5689 6.84084L23.5689 6.82042L23.5689 6.79999L23.5689 6.78977L23.5536 6.78467ZM23.3442 6.32759C23.3161 6.34547 23.2804 6.35313 23.2293 6.35313L22.9893 6.35313L22.9893 6.11054L23.2446 6.11054C23.2804 6.11054 23.3059 6.11565 23.3289 6.12587C23.3647 6.14374 23.3825 6.17694 23.3825 6.22801C23.3825 6.27652 23.3698 6.30972 23.3442 6.32759Z" fill="#18527D"/>
<path d="M23.179 7.24091C22.7271 7.24091 22.3594 6.8732 22.3594 6.42123C22.3594 5.96927 22.7271 5.60156 23.179 5.60156C23.631 5.60156 23.9987 5.96927 23.9987 6.42123C23.9987 6.8732 23.631 7.24091 23.179 7.24091ZM23.179 5.75477C22.8113 5.75477 22.5126 6.05353 22.5126 6.42123C22.5126 6.78894 22.8113 7.0877 23.179 7.0877C23.5468 7.0877 23.8455 6.78894 23.8455 6.42123C23.8455 6.05353 23.5468 5.75477 23.179 5.75477Z" fill="#18527D"/>
</g>
<defs>
<clipPath id="clip0_2104_5711">
<rect width="24" height="24" fill="white"/>
</clipPath>
</defs>
</svg>
