<svg width="20" height="20" viewBox="0 0 20 20" fill="none" xmlns="http://www.w3.org/2000/svg">
<g clip-path="url(#clip0_392_3347)">
<path d="M3.39132 17.4644C1.03017 16.9119 -0.436029 14.5499 0.116468 12.1887C0.400109 10.9766 1.18493 9.94187 2.27569 9.34191C0.637781 6.22536 1.83648 2.37105 4.95305 0.733145C8.06964 -0.904768 11.9239 0.293925 13.5619 3.41051C13.8239 3.90895 14.0185 4.43988 14.1411 4.98945C17.0575 5.66284 19.1148 8.27172 19.0896 11.2648C18.5905 10.7655 18.0007 10.3663 17.3516 10.0886C16.8929 8.17167 15.3049 6.73264 13.3521 6.46445L12.7473 6.38476L12.6676 5.78075C12.3177 3.16609 9.91441 1.33023 7.29979 1.68016C4.68517 2.03011 2.84927 4.4334 3.19921 7.04803C3.30623 7.84775 3.61413 8.60733 4.09412 9.25588L4.91251 10.401C4.48991 10.3715 4.06525 10.4053 3.65265 10.5014C2.16527 10.9017 1.28401 12.432 1.68435 13.9195C1.89547 14.7039 2.43816 15.3573 3.17053 15.7089C3.12493 16.3029 3.20003 16.9001 3.39132 17.4644Z" fill="#272829"/>
<path d="M19.1097 15.9287C19.1075 13.9711 17.6854 12.3042 15.7525 11.9938C14.2527 6.83565 6.69608 8.27 7.18696 13.6313C5.48016 14.0713 4.4533 15.8117 4.89334 17.5185C5.25399 18.9172 6.50914 19.8993 7.95355 19.9131H15.1254C17.3247 19.9104 19.107 18.1281 19.1097 15.9287ZM9.30823 15.1319L8.92812 14.0673C7.70334 10.1467 13.6702 8.76413 14.2974 12.8329L14.3771 13.5421H15.1739C16.4926 13.6077 17.5085 14.7299 17.4429 16.0485C17.3809 17.2941 16.3719 18.2828 15.1254 18.3193H7.95355C7.07335 18.3193 6.3598 17.6059 6.3598 16.7256C6.3598 15.8455 7.07335 15.1319 7.95355 15.1319H9.30823Z" fill="#272829"/>
</g>
<defs>
<clipPath id="clip0_392_3347">
<rect width="20" height="20" fill="white"/>
</clipPath>
</defs>
</svg>
