<svg width="20" height="18" viewBox="0 0 20 18" fill="none" xmlns="http://www.w3.org/2000/svg">
<g clip-path="url(#clip0_392_3340)">
<path d="M14.9021 12.3602C17.1868 12.8986 18.8236 14.3512 18.8236 16.0587" stroke="#272829" stroke-width="1.5" stroke-linecap="round" stroke-linejoin="round"/>
<path d="M1.17651 16.0589C1.17651 13.893 3.81014 12.1373 7.05887 12.1373C10.3076 12.1373 12.9412 13.893 12.9412 16.0589" stroke="#272829" stroke-width="1.5" stroke-linecap="round" stroke-linejoin="round"/>
<path d="M12.9412 9.19605C15.1069 9.19605 16.8627 7.44029 16.8627 5.27447C16.8627 3.10865 15.1069 1.35291 12.9412 1.35291" stroke="#272829" stroke-width="1.5" stroke-linecap="round" stroke-linejoin="round"/>
<path d="M7.05878 9.19605C9.2246 9.19605 10.9803 7.44029 10.9803 5.27447C10.9803 3.10865 9.2246 1.35291 7.05878 1.35291C4.89296 1.35291 3.13721 3.10865 3.13721 5.27447C3.13721 7.44029 4.89296 9.19605 7.05878 9.19605Z" stroke="#272829" stroke-width="1.5" stroke-linecap="round" stroke-linejoin="round"/>
</g>
<defs>
<clipPath id="clip0_392_3340">
<rect width="20" height="17.6471" fill="white" transform="translate(0 0.176453)"/>
</clipPath>
</defs>
</svg>
