<svg width="15" height="16" viewBox="0 0 15 16" fill="none" xmlns="http://www.w3.org/2000/svg">
<g clip-path="url(#clip0_2104_5661)">
<path d="M11.875 2.375H3.125C2.79378 2.37599 2.47642 2.508 2.24221 2.74221C2.008 2.97642 1.87599 3.29378 1.875 3.625V12.375C1.87599 12.7062 2.008 13.0236 2.24221 13.2578C2.47642 13.492 2.79378 13.624 3.125 13.625H11.875C12.2062 13.624 12.5236 13.492 12.7578 13.2578C12.992 13.0236 13.124 12.7062 13.125 12.375V3.625C13.124 3.29378 12.992 2.97642 12.7578 2.74221C12.5236 2.508 12.2062 2.37599 11.875 2.375ZM3.125 12.375V3.625H6.875V12.375H3.125ZM11.875 12.375H8.125V8H11.875V12.375ZM11.875 6.75H8.125V3.625H11.875V6.75Z" fill="#272833"/>
</g>
<defs>
<clipPath id="clip0_2104_5661">
<rect width="15" height="15" fill="white" transform="translate(0 0.5)"/>
</clipPath>
</defs>
</svg>