<svg width="16" height="17" viewBox="0 0 16 17" fill="none" xmlns="http://www.w3.org/2000/svg">
<path d="M14.111 9.284C14.1471 9.0241 14.1664 8.76225 14.1686 8.5C14.1664 8.23775 14.1471 7.9759 14.111 7.716L15.8462 6.39601C15.9228 6.3362 15.9749 6.25169 15.993 6.15778C16.0111 6.06387 15.994 5.96675 15.9449 5.88401L14.3002 3.11603C14.2636 3.05439 14.2108 3.00336 14.1472 2.9682C14.0836 2.93305 14.0115 2.91504 13.9383 2.91603C13.8906 2.9155 13.8432 2.92364 13.7985 2.94003L11.7508 3.74002C11.3257 3.41934 10.8583 3.15566 10.361 2.95603L10.0485 0.836036C10.0349 0.741909 9.9865 0.655845 9.91232 0.593986C9.83813 0.532126 9.74329 0.498722 9.64559 0.500037H6.35615C6.25845 0.498722 6.16361 0.532126 6.08942 0.593986C6.01523 0.655845 5.9668 0.741909 5.95319 0.836036L5.64069 2.95603C5.14502 3.15876 4.67798 3.42223 4.2509 3.74002L2.20322 2.94003C2.15554 2.92429 2.10555 2.91618 2.0552 2.91603C1.98344 2.91645 1.91305 2.93513 1.85101 2.97022C1.78898 3.0053 1.73746 3.05557 1.70158 3.11603L0.0568586 5.88401C0.00652639 5.96644 -0.0112175 6.06388 0.006945 6.15811C0.0251075 6.25235 0.0779328 6.33692 0.155542 6.39601L1.89072 7.716C1.8549 7.97593 1.83567 8.23776 1.83316 8.5C1.83567 8.76224 1.8549 9.02407 1.89072 9.284L0.155542 10.604C0.078943 10.6638 0.0268825 10.7483 0.00878155 10.8422C-0.00931942 10.9361 0.0077349 11.0332 0.0568586 11.116L1.70158 13.884C1.73815 13.9456 1.79096 13.9966 1.85457 14.0318C1.91818 14.067 1.99027 14.085 2.06342 14.084C2.11115 14.0845 2.15856 14.0764 2.20322 14.06L4.2509 13.26C4.676 13.5807 5.14344 13.8443 5.64069 14.044L5.95319 16.164C5.9668 16.2581 6.01523 16.3442 6.08942 16.406C6.16361 16.4679 6.25845 16.5013 6.35615 16.5H9.64559C9.74329 16.5013 9.83813 16.4679 9.91232 16.406C9.9865 16.3442 10.0349 16.2581 10.0485 16.164L10.361 14.044C10.8567 13.8412 11.3238 13.5778 11.7508 13.26L13.7985 14.06C13.8462 14.0757 13.8962 14.0838 13.9465 14.084C14.0183 14.0836 14.0887 14.0649 14.1507 14.0298C14.2128 13.9947 14.2643 13.9444 14.3002 13.884L15.9449 11.116C15.994 11.0332 16.0111 10.9361 15.993 10.8422C15.9749 10.7483 15.9228 10.6638 15.8462 10.604L14.111 9.284ZM12.4827 7.916C12.5101 8.10953 12.5239 8.30465 12.5239 8.5C12.5239 8.668 12.5074 8.844 12.4827 9.084L12.3676 9.98799L13.0995 10.548L13.9877 11.22L13.412 12.188L12.3676 11.78L11.5124 11.444L10.7722 11.988C10.4557 12.2233 10.1104 12.4194 9.74428 12.572L8.87257 12.916L8.74099 13.82L8.57652 14.9H7.42522L7.26897 13.82L7.13739 12.916L6.26569 12.572C5.9054 12.4246 5.56557 12.2338 5.25418 12.004L4.50583 11.444L3.63413 11.788L2.58973 12.196L2.01408 11.228L2.90223 10.556L3.63413 9.99599L3.519 9.092C3.49433 8.844 3.47788 8.66 3.47788 8.5C3.47788 8.34 3.49433 8.156 3.519 7.916L3.63413 7.01201L2.90223 6.45201L2.01408 5.78001L2.58973 4.81202L3.63413 5.22002L4.48939 5.55601L5.22951 5.01202C5.54602 4.77675 5.89131 4.58059 6.25746 4.42802L7.12917 4.08402L7.26074 3.18002L7.42522 2.10003H8.5683L8.72455 3.18002L8.85612 4.08402L9.72783 4.42802C10.0881 4.57539 10.4279 4.76622 10.7393 4.99602L11.4877 5.55601L12.3594 5.21202L13.4038 4.80402L13.9794 5.77201L13.0995 6.45201L12.3676 7.01201L12.4827 7.916ZM8.00087 5.30001C7.35028 5.30001 6.7143 5.48769 6.17335 5.83931C5.63241 6.19093 5.21079 6.6907 4.96182 7.27542C4.71285 7.86014 4.64771 8.50355 4.77463 9.12429C4.90155 9.74502 5.21484 10.3152 5.67488 10.7627C6.13492 11.2103 6.72104 11.515 7.35913 11.6385C7.99722 11.762 8.65862 11.6986 9.25969 11.4564C9.86075 11.2142 10.3745 10.8041 10.7359 10.2778C11.0974 9.75158 11.2903 9.1329 11.2903 8.5C11.2903 7.65131 10.9437 6.83738 10.3269 6.23727C9.70997 5.63716 8.87328 5.30001 8.00087 5.30001ZM8.00087 10.1C7.67557 10.1 7.35758 10.0062 7.08711 9.83035C6.81664 9.65454 6.60583 9.40465 6.48134 9.11229C6.35686 8.81993 6.32429 8.49823 6.38775 8.18786C6.45121 7.87749 6.60786 7.5924 6.83787 7.36863C7.06789 7.14487 7.36095 6.99249 7.68 6.93075C7.99904 6.86901 8.32974 6.9007 8.63028 7.0218C8.93081 7.1429 9.18768 7.34797 9.36841 7.61109C9.54913 7.87421 9.64559 8.18355 9.64559 8.5C9.64429 8.92395 9.47059 9.33018 9.16243 9.62997C8.85426 9.92975 8.43668 10.0987 8.00087 10.1Z" fill="#272829"/>
</svg>
