<svg width="20" height="20" viewBox="0 0 20 20" fill="none" xmlns="http://www.w3.org/2000/svg">
<path fill-rule="evenodd" clip-rule="evenodd" d="M7.93138 18.7979H7.95416H9.59095H10.0002C10.3392 18.7979 10.614 18.5231 10.614 18.1841C10.614 17.8451 10.3392 17.5704 10.0002 17.5704H9.59095H7.95416C6.99245 17.5704 6.30191 17.57 5.75699 17.5328C5.21759 17.496 4.86586 17.4251 4.57713 17.3055C3.72488 16.9525 3.04776 16.2754 2.69475 15.4231C2.57515 15.1345 2.5043 14.7828 2.4675 14.2434C2.43033 13.6984 2.42999 13.0079 2.42999 12.0461V11.637C2.42999 11.298 2.15518 11.0232 1.81619 11.0232C1.4772 11.0232 1.20239 11.298 1.20239 11.637V12.0461V12.0689C1.20239 13.003 1.20239 13.7353 1.24275 14.3269C1.28383 14.9288 1.36871 15.4298 1.5606 15.893C2.03821 17.046 2.9543 17.9621 4.10735 18.4398C4.5706 18.6316 5.07153 18.7165 5.67343 18.7575C6.26503 18.7979 6.99735 18.7979 7.93138 18.7979ZM18.1841 10.614C18.5231 10.614 18.7979 10.3391 18.7979 10.0002V9.59095V8.36335V8.33593C18.7979 7.2133 18.7979 6.33315 18.7401 5.62578C18.6813 4.90546 18.5595 4.3104 18.285 3.77179C17.8339 2.88634 17.114 2.16645 16.2285 1.71529C15.6899 1.44085 15.0949 1.31903 14.3745 1.26018C13.6671 1.20239 12.787 1.20239 11.6644 1.20239H11.637H7.95416H7.93138C6.99735 1.20239 6.26501 1.20239 5.67343 1.24275C5.07153 1.28381 4.5706 1.36871 4.10735 1.5606C2.9543 2.03821 2.0382 2.9543 1.5606 4.10735C1.36871 4.5706 1.28381 5.07153 1.24275 5.67343C1.20239 6.26503 1.20239 6.99735 1.20239 7.93138V7.95416V8.36336C1.20239 8.70235 1.4772 8.97716 1.81619 8.97716C2.15518 8.97716 2.42999 8.70235 2.42999 8.36336V7.95416C2.42999 6.99245 2.43031 6.30191 2.4675 5.75699C2.5043 5.21759 2.57515 4.86586 2.69475 4.57713C3.04776 3.72488 3.72488 3.04776 4.57713 2.69475C4.86586 2.57515 5.21759 2.5043 5.75699 2.4675C6.30191 2.43031 6.99245 2.42999 7.95416 2.42999H11.637C12.7929 2.42999 13.623 2.43046 14.2746 2.4837C14.919 2.53635 15.3345 2.63753 15.6713 2.80909C16.3256 3.14255 16.8578 3.67465 17.1913 4.32911C17.3628 4.66581 17.464 5.08135 17.5166 5.72574C17.5699 6.37729 17.5704 7.20736 17.5704 8.36335V9.59095V10.0002C17.5704 10.3391 17.8451 10.614 18.1841 10.614Z" fill="#272829" stroke="black" stroke-width="0.2"/>
<path d="M11.4646 14.5696H14.7382M14.7382 14.5696H18.0118M14.7382 14.5696V11.2961M14.7382 14.5696V17.8432" stroke="#272829" stroke-width="1.5" stroke-linecap="round" stroke-linejoin="round"/>
<path fill-rule="evenodd" clip-rule="evenodd" d="M5.27913 4.50873C4.79314 4.50873 4.39551 4.90636 4.39551 5.39237C4.39551 5.87837 4.79314 6.276 5.27913 6.276C5.76514 6.276 6.16278 5.87837 6.16278 5.39237C6.16278 4.90636 5.76514 4.50873 5.27913 4.50873ZM10.581 4.50882C10.095 4.50882 9.69733 4.90647 9.69733 5.39246C9.69733 5.87846 10.095 6.27611 10.581 6.27611C11.067 6.27611 11.4646 5.87846 11.4646 5.39246C11.4646 4.90647 11.067 4.50882 10.581 4.50882ZM7.04676 5.39246C7.04676 4.90647 7.4444 4.50882 7.93041 4.50882C8.4164 4.50882 8.81403 4.90647 8.81403 5.39246C8.81403 5.87846 8.4164 6.27611 7.93041 6.27611C7.4444 6.27611 7.04676 5.87846 7.04676 5.39246Z" fill="#272829"/>
<path d="M1.81763 8.45703H17.4688" stroke="#272829" stroke-width="1.2" stroke-linecap="round" stroke-linejoin="round"/>
</svg>
