<svg width="18" height="18" viewBox="0 0 18 18" fill="none" xmlns="http://www.w3.org/2000/svg">
<path d="M17 8.65336C17 12.8799 13.4178 16.3067 9 16.3067C8.48056 16.3074 7.96256 16.2594 7.45232 16.1636C7.08506 16.0946 6.90142 16.0601 6.77322 16.0797C6.64502 16.0993 6.46334 16.1958 6.09999 16.3891C5.07211 16.9358 3.87356 17.1288 2.72089 16.9144C3.15899 16.3755 3.4582 15.729 3.59022 15.0358C3.67022 14.6118 3.472 14.2 3.17511 13.8985C1.82666 12.5292 1 10.6841 1 8.65336C1 4.42686 4.58222 1 9 1C13.4178 1 17 4.42686 17 8.65336Z" stroke="#272829" stroke-width="1.5" stroke-linejoin="round"/>
<path d="M8.9955 9H9.0045M12.991 9H13M5 9H5.00897" stroke="#272829" stroke-width="2" stroke-linecap="round" stroke-linejoin="round"/>
</svg>
