<svg width="24" height="25" viewBox="0 0 24 25" fill="none" xmlns="http://www.w3.org/2000/svg">
<path d="M20.0376 7.26874V6.24678H19.6719V6.03906H20.6528V6.24678H20.287V7.26874H20.0376Z" fill="#15537E"/>
<path d="M20.8047 7.26874V6.03906H21.1787L21.4032 6.87824L21.6276 6.03906H22.0017V7.26874H21.7689V6.30494L21.5279 7.26874H21.2868L21.0458 6.30494V7.26874H20.8047Z" fill="#15537E"/>
<path d="M18.3061 11.8201C17.5164 11.8201 16.8763 11.2385 16.8763 10.4492C16.8763 11.9863 15.6295 13.2326 14.0917 13.2326H12.2796C11.731 13.2326 11.2322 13.5484 10.9911 14.0386L8.92969 18.2926H9.88561C10.6753 18.2926 11.3153 18.8493 11.3153 19.6386C11.3153 19.8712 11.2571 20.0956 11.1574 20.295C11.1657 20.2867 11.1657 20.2701 11.174 20.2618L13.1856 16.0908H14.1C17.2088 16.0908 19.7441 13.565 19.7441 10.4492C19.7358 11.2385 19.0957 11.8201 18.3061 11.8201Z" fill="#3281C4"/>
<path d="M3.43735 18.2861L5.67339 18.2944L7.12805 15.2783C7.46886 14.5638 7.16963 13.7163 6.46307 13.3673C5.74821 13.0267 4.90033 13.3258 4.55121 14.032L2.14895 19.0172C2.14895 19.0255 2.14062 19.0339 2.14062 19.0422C2.36506 18.5603 2.85549 18.2861 3.43735 18.2861Z" fill="#FDBC1F"/>
<path d="M18.3127 11.8793C17.523 11.8793 16.883 11.2395 16.883 10.4502C16.883 8.91307 15.6361 7.66677 14.0983 7.66677H8.04692C7.25724 7.66677 6.61719 7.02701 6.61719 6.23768C6.61719 5.44836 7.25724 4.80859 8.04692 4.80859H14.0983C17.2072 4.80859 19.7424 7.33443 19.7424 10.4502C19.7424 11.2395 19.1024 11.8793 18.3127 11.8793Z" fill="#00B2E3"/>
<path d="M9.88844 21.0769H3.42973C2.64005 21.0769 2 20.4372 2 19.6478C2 18.8585 2.64005 18.2188 3.42973 18.2188H9.88844C10.6781 18.2188 11.3182 18.8585 11.3182 19.6478C11.3182 20.4372 10.6781 21.0769 9.88844 21.0769Z" fill="#15537E"/>
<path d="M7.85161 11.8894C8.64122 11.8894 9.28134 11.2496 9.28134 10.4603C9.28134 9.67107 8.64122 9.03125 7.85161 9.03125C7.06199 9.03125 6.42188 9.67107 6.42188 10.4603C6.42188 11.2496 7.06199 11.8894 7.85161 11.8894Z" fill="#4880C1"/>
<path d="M4.60178 20.5036L5.70732 18.2188H3.42973C2.64005 18.2188 2 18.8585 2 19.6478C2 20.4372 2.64005 21.0769 3.42973 21.0769H4.10303C4.31915 20.9357 4.49372 20.7446 4.60178 20.5036Z" fill="#1D3554"/>
</svg>
