<svg width="24" height="25" viewBox="0 0 24 25" fill="none" xmlns="http://www.w3.org/2000/svg">
<path d="M14.3564 22.2599V21.1921H13.9766V20.9727H15.0033V21.1921H14.6234V22.2599H14.3564Z" fill="#15537E"/>
<path d="M15.1641 22.2599V20.9727H15.5558L15.7872 21.8506L16.0187 20.9727H16.4104V22.2599H16.167V21.2455L15.9118 22.2599H15.6626L15.4074 21.2455V22.2599H15.1641Z" fill="#15537E"/>
<path d="M11.4755 13.4617C11.1847 13.1711 11.1847 12.7024 11.4755 12.4118C11.9919 11.8957 11.9919 11.0652 11.4755 10.555C10.9592 10.0389 10.1284 10.0389 9.61797 10.555C8.98296 11.1898 8.63281 12.038 8.63281 12.9397C8.63281 13.8414 8.98296 14.6897 9.61797 15.3244C9.64171 15.3481 9.67139 15.3778 9.70106 15.4015C9.47554 15.1702 9.33904 14.7134 9.33904 14.3931C9.33904 14.0727 9.46367 13.7643 9.69513 13.5389C9.92658 13.3075 10.2292 13.1829 10.5497 13.1829C10.8405 13.1829 11.2144 13.266 11.4518 13.4439L11.4755 13.4617Z" fill="#15537E"/>
<path d="M14.4934 6.681C12.8198 6.01661 10.986 6.04034 9.33611 6.74625C7.68033 7.4581 6.40436 8.76908 5.73374 10.4419C5.46668 11.1182 5.79309 11.8834 6.46965 12.1504C7.1462 12.4173 7.91178 12.091 8.17884 11.4148C9.01563 9.3089 11.4133 8.28265 13.5201 9.11907C15.6269 9.95549 16.6536 12.352 15.8168 14.4579C15.7041 14.7427 15.5616 15.0037 15.3954 15.2469C15.3954 15.241 15.4014 15.241 15.4014 15.235C15.6328 14.885 16.1195 14.7367 16.5112 14.7367C16.7426 14.7367 16.9741 14.802 17.1818 14.9384C17.4489 15.1164 17.6328 15.3893 17.6981 15.7096C17.7634 16.024 17.7337 16.4808 17.5557 16.7477C17.8346 16.3443 18.072 15.9053 18.2619 15.4308C19.6388 11.9843 17.9474 8.05723 14.4934 6.681Z" fill="#3281C4"/>
<path d="M13.861 19.2388C13.3566 19.2388 12.8996 18.9184 12.7275 18.4439C12.6147 18.1413 12.6325 17.8091 12.7631 17.5185C12.8996 17.2278 13.2438 16.8481 13.5465 16.7414C13.5643 16.7354 13.5762 16.7295 13.588 16.7176C12.6266 17.121 11.5109 17.1685 10.4664 16.7532C9.78982 16.4863 9.02424 16.8126 8.75718 17.4888C8.49012 18.1651 8.81653 18.9303 9.49308 19.1972C10.3121 19.5235 11.1548 19.6777 11.9797 19.6777C12.8046 19.6777 13.6177 19.5235 14.3773 19.2388C14.2408 19.2625 13.9916 19.2388 13.861 19.2388Z" fill="#3281C4"/>
<path d="M13.8616 19.3476C13.3275 19.3476 12.823 19.0154 12.6272 18.4874C12.3779 17.8052 12.7281 17.0519 13.4106 16.8027C14.2177 16.5061 14.9299 15.9426 15.4165 15.2248C15.8201 14.6197 16.6391 14.4596 17.2385 14.8629C17.8438 15.2663 18.004 16.085 17.6005 16.6841C16.8112 17.8646 15.642 18.784 14.3186 19.2705C14.1702 19.3239 14.0159 19.3476 13.8616 19.3476Z" fill="#0F6C9F"/>
<path d="M11.9996 16.3106C11.0975 16.3106 10.2488 15.9606 9.6138 15.3258C9.09748 14.8097 9.09748 13.9793 9.6138 13.4691C10.1301 12.953 10.961 12.953 11.4714 13.4691C11.6138 13.6115 11.7978 13.6886 11.9936 13.6886C12.1895 13.6886 12.3794 13.6115 12.5159 13.4691C13.0322 12.953 13.8631 12.953 14.3734 13.4691C14.8898 13.9852 14.8898 14.8157 14.3734 15.3258C13.7444 15.9606 12.8957 16.3106 11.9996 16.3106Z" fill="#0F3253"/>
<path d="M12 2.94531C12.6647 2.94531 13.2107 3.59191 13.2107 4.26223C13.2107 4.93255 12.6706 5.57914 12 5.57914C16.0593 5.57914 19.365 8.8833 19.365 12.9408C19.365 13.6645 19.9525 14.2577 20.6825 14.2577C21.4124 14.2577 22 13.6705 22 12.9408C21.994 7.42995 17.5133 2.94531 12 2.94531Z" fill="#00B2E3"/>
<path d="M3.31751 14.1515C2.64688 14.1515 2 13.6058 2 12.9414C2 18.4523 6.48664 22.9369 12 22.9369C12.724 22.9369 13.3175 22.3496 13.3175 21.62C13.3175 20.8904 12.73 20.3031 12 20.3031C7.94064 20.3031 4.63501 16.9989 4.63501 12.9414C4.62908 13.6058 3.98219 14.1515 3.31751 14.1515Z" fill="#00B2E3"/>
<path d="M3.31751 14.2518C2.58754 14.2518 2 13.6645 2 12.9408C2 7.42995 6.48664 2.94531 12 2.94531C12.724 2.94531 13.3175 3.53259 13.3175 4.26223C13.3175 4.99187 12.73 5.57914 12 5.57914C7.93471 5.57321 4.62908 8.87737 4.62908 12.9408C4.62908 13.6645 4.04154 14.2518 3.31751 14.2518Z" fill="#FDBC1F"/>
</svg>
