<svg width="24" height="25" viewBox="0 0 24 25" fill="none" xmlns="http://www.w3.org/2000/svg">
<path d="M19.9778 8.29838C19.9778 8.0783 19.9338 7.85822 19.8897 7.68216C19.4056 4.73309 16.6766 2.48828 13.6835 2.48828C13.1113 2.48828 12.5831 2.48828 12.0109 2.48828C9.45797 2.48828 6.90505 2.48828 4.30811 2.48828H4.08803V4.42498V13.9324V17.2776C6.50891 14.3726 8.92978 11.5115 11.3507 8.65051H8.53364C7.78537 9.53083 7.0371 10.4552 6.28883 11.3355V4.60105H6.50891C8.00545 4.60105 9.50199 4.60105 10.9985 4.60105C11.8348 4.60105 12.6271 4.60105 13.4634 4.60105C13.6395 4.60105 13.8155 4.60105 13.9916 4.64506C14.9159 4.73309 15.7963 5.08522 16.4565 5.70144C17.4689 6.58176 17.9971 7.90224 17.909 9.22272C17.777 11.2915 16.1924 12.876 14.2997 13.1841C14.0356 13.2282 13.7715 13.2282 13.5074 13.2282C13.0673 13.2282 12.6271 13.2282 12.187 13.2282H9.76608C8.04946 15.2969 6.28883 17.3657 4.57221 19.4344C4.35213 19.6105 4.17606 19.8306 4 20.0506V23.3958C4.57221 22.7356 5.1004 22.0754 5.6726 21.4151C7.34521 19.3904 9.06183 17.4097 10.7344 15.3849C11.2626 15.3849 11.7468 15.3849 12.275 15.3849C12.7592 15.3849 13.2433 15.3849 13.7275 15.3849C14.1237 15.3849 14.5198 15.3409 14.8719 15.2529C18.1291 14.5046 20.2419 11.6436 19.9778 8.29838Z" fill="#546AB1"/>
</svg>
