<svg width="24" height="25" viewBox="0 0 24 25" fill="none" xmlns="http://www.w3.org/2000/svg">
<path d="M16.1544 22.8388V21.7008H15.75V21.4688H16.836V21.7008H16.4316V22.8388H16.1544Z" fill="#18527D"/>
<path d="M17.0078 22.8388V21.4688H17.4197L17.6669 22.4046L17.9141 21.4688H18.326V22.8388H18.0714V21.7607L17.8017 22.8388H17.5396L17.2699 21.7607V22.8388H17.0078Z" fill="#18527D"/>
<path d="M21.7081 16.0323C21.6909 16.0737 21.6724 16.1152 21.654 16.1566C21.2568 17.0455 20.5372 17.7927 19.5712 18.2003L14.1231 20.5018L13.5394 20.7482C12.9499 20.9969 12.2706 20.7205 12.0219 20.1322C11.7732 19.5427 12.0484 18.8634 12.6379 18.6147L13.2216 18.3683L18.6697 16.068C18.7653 16.0277 18.8551 15.9782 18.9392 15.9229C19.5954 15.49 19.8717 14.6357 19.5551 13.8862L19.3675 13.4429L16.5685 6.81696L16.3843 6.3806C16.0666 5.62878 15.2595 5.23272 14.4892 5.40311C14.3925 5.42499 14.297 5.45492 14.2025 5.49407L11.4796 6.64426C12.0691 6.39557 12.3443 5.71628 12.0956 5.12679C11.8469 4.53731 11.1676 4.26214 10.5781 4.51083L13.301 3.36064C14.2463 2.96112 15.2595 2.95652 16.1587 3.27083C16.2531 3.30422 16.3463 3.34106 16.4384 3.38136C17.3422 3.77512 18.1033 4.50161 18.5166 5.4791L21.6862 12.9847C22.1168 13.9956 22.0927 15.087 21.7081 16.0323Z" fill="#0087E2"/>
<path d="M11.482 6.64281L8.01528 8.10731C7.4258 8.356 6.74651 8.07968 6.49782 7.49134C6.24913 6.90186 6.5243 6.22257 7.11378 5.97388L10.5805 4.50937C11.17 4.26069 11.8492 4.53701 12.0979 5.12534C12.3466 5.71368 12.0703 6.39412 11.482 6.64281Z" fill="#00B4E5"/>
<path d="M13.5387 20.7467L10.0778 22.2078C9.4883 22.4564 8.80901 22.1801 8.56032 21.5918C8.31163 21.0023 8.5868 20.323 9.17628 20.0743L12.6372 18.6133C12.0477 18.862 11.7726 19.5413 12.0212 20.1307C12.2699 20.7191 12.9492 20.9954 13.5387 20.7467Z" fill="#00B4E5"/>
<path d="M6.15789 13.2709L14.8171 9.81345C15.2155 9.65456 15.4089 9.20324 15.25 8.80487C15.0911 8.40651 14.6398 8.21308 14.2414 8.37197L5.58222 11.8294C5.18385 11.9883 4.99043 12.4397 5.14931 12.838C5.3082 13.2364 5.75952 13.4298 6.15789 13.2709Z" fill="#0E6CA0"/>
<path d="M3.06414 17.3178L11.7234 13.8603C12.1217 13.7014 12.3151 13.2501 12.1563 12.8517C11.9974 12.4534 11.5461 12.26 11.1477 12.4188L2.48847 15.8752C2.0901 16.034 1.89668 16.4854 2.05556 16.8837C2.21445 17.2821 2.66577 17.4767 3.06414 17.3178Z" fill="#FFBE1D"/>
<path d="M7.53289 18.2983L16.1921 14.8408C16.5905 14.6819 16.7839 14.2306 16.625 13.8322C16.4661 13.4339 16.0148 13.2404 15.6164 13.3993L6.95722 16.8568C6.55885 17.0157 6.36543 17.467 6.52431 17.8654C6.6832 18.2637 7.13567 18.4583 7.53289 18.2983Z" fill="#0087E2"/>
</svg>
