<svg width="24" height="25" viewBox="0 0 24 25" fill="none" xmlns="http://www.w3.org/2000/svg">
<path d="M12.9007 9.85547H9.4696C9.16174 10.2345 8.99219 10.7028 8.99219 11.1979C8.99219 11.7196 9.17959 12.1924 9.49192 12.5625H12.9007C13.4718 12.5625 14.0028 12.7855 14.4043 13.1869C14.4489 13.2315 14.4891 13.2761 14.5292 13.3207H17.5454C17.3223 12.5536 16.9074 11.8534 16.3273 11.2692C15.4082 10.3594 14.1946 9.85547 12.9007 9.85547Z" fill="#0F6C9F"/>
<path d="M14.4078 16.2002C14.0062 16.6016 13.4708 16.8245 12.9041 16.8245L3.96276 16.8201V19.5316H1.25L12.9041 19.5361C14.1981 19.5361 15.4117 19.0321 16.3263 18.1179C16.9153 17.5292 17.3347 16.8156 17.5578 16.0352H14.5595C14.5104 16.0931 14.4613 16.1467 14.4078 16.2002Z" fill="#3281C4"/>
<path d="M3.95495 14.6904C3.95495 13.5175 4.90976 12.5631 6.08321 12.5631H6.47584C6.34645 12.1305 6.27952 11.6711 6.27952 11.1984C6.27952 10.7346 6.34646 10.2842 6.46692 9.85156H6.08321C3.41507 9.85156 1.24219 12.0235 1.24219 14.6904V16.8177H3.95495V14.6904Z" fill="#00B2E3"/>
<path d="M11.1213 13.3251C10.4654 13.3251 9.88089 13.0263 9.48826 12.5625H6.47656C7.06998 14.5694 8.92608 16.0367 11.1213 16.0367H14.5479C14.8558 15.6576 15.0253 15.1893 15.0253 14.6943C15.0253 14.1859 14.8513 13.7087 14.5256 13.3251H11.1213Z" fill="#FDBC1F"/>
<path d="M9.61431 9.69193C10.0159 9.29055 10.5513 9.06757 11.1179 9.06757L17.1681 9.06311C17.4759 8.68403 17.6455 8.21575 17.6455 7.72072C17.6455 7.2123 17.4715 6.7351 17.1458 6.35156H11.1179C9.82401 6.35156 8.6104 6.85551 7.69574 7.76977C7.10678 8.35846 6.69184 9.06757 6.46875 9.84358H9.46706C9.51168 9.79898 9.56077 9.74545 9.61431 9.69193Z" fill="#FDBC1F"/>
<path d="M17.5474 13.3203H14.5312C14.8525 13.7039 15.031 14.1855 15.031 14.6895C15.031 15.1845 14.8614 15.6528 14.5536 16.0319H17.5519C17.6768 15.6037 17.7393 15.1533 17.7393 14.6939C17.7437 14.2212 17.6768 13.7618 17.5474 13.3203Z" fill="#0F3253"/>
<path d="M6.47778 12.5625H9.48947C9.17715 12.1924 8.98974 11.7152 8.98974 11.1979C8.98974 10.7028 9.1593 10.2301 9.46716 9.85547H6.46885C6.34392 10.2881 6.277 10.7385 6.28146 11.2023C6.28146 11.6706 6.34839 12.1299 6.47778 12.5625Z" fill="#15537E"/>
<path d="M3.95495 16.8203H1.24219V19.5319H3.95495V16.8203Z" fill="#0F6C9F"/>
<path d="M22.7805 13.3248L20.0678 13.3203H17.5469C17.6763 13.7618 17.7432 14.2212 17.7432 14.6939C17.7432 15.1533 17.6763 15.6037 17.5558 16.0319H22.785L22.7805 13.3248Z" fill="#15537E"/>
<path d="M17.1707 9.06701H17.9337C19.1071 9.06701 20.062 10.0214 20.062 11.1943V13.3216L22.7747 13.3261V11.1943C22.7747 8.52738 20.6018 6.35547 17.9337 6.35547H17.1484C17.4697 6.73901 17.6482 7.21621 17.6482 7.72462C17.6482 8.21966 17.4786 8.68793 17.1707 9.06701Z" fill="#0F6C9F"/>
<path d="M17.9329 18.4917V17.631H17.625V17.457H18.4504V17.631H18.1426V18.4917H17.9329Z" fill="#15537E"/>
<path d="M18.5781 18.4917V17.457H18.8904L19.0778 18.1617L19.2652 17.457H19.5776V18.4917H19.3812V17.6756L19.176 18.4917H18.9797L18.7744 17.6756V18.4917H18.5781Z" fill="#15537E"/>
</svg>
