<svg width="24" height="24" viewBox="0 0 24 24" fill="none" xmlns="http://www.w3.org/2000/svg">
<path d="M16.5559 12.8464L15.877 13.51C15.6959 13.6834 15.6129 13.9398 15.6582 14.1811L16.2542 17.6423C16.3296 18.0872 15.8619 18.4265 15.462 18.2154L15.2734 18.1173L21.9952 21.9857V11.9943C21.9952 10.6747 21.7387 9.41544 21.2709 8.26172L16.5559 12.8464Z" fill="#0F3253"/>
<path d="M7.74102 17.6411L8.25401 14.6626L8.33698 14.1724C8.38225 13.9236 8.29928 13.6747 8.11822 13.5013L5.59849 11.0506C5.2741 10.7339 5.45518 10.1834 5.90027 10.1156L6.21711 10.0703L2.09052 10.6434C2.03017 11.0883 2 11.5332 2 11.9932C2 15.771 4.10478 19.0663 7.20538 20.763L7.74102 17.6562C7.74102 17.6487 7.74102 17.6487 7.74102 17.6411Z" fill="#FDBC1F"/>
<path d="M21.997 21.9915L15.2752 18.1231L12.3557 16.5848C12.1369 16.4717 11.8729 16.4717 11.6466 16.5848L8.53088 18.2212C8.13105 18.4323 7.67087 18.1005 7.73877 17.6556L7.20312 20.7624C8.62895 21.5466 10.2585 21.9915 11.9936 21.9915H21.997Z" fill="#3281C4"/>
<path d="M6.22008 10.0798L9.38103 9.61986C9.62998 9.58216 9.8412 9.43136 9.95436 9.20514L11.5084 6.05312C11.7121 5.64593 12.3006 5.64593 12.4967 6.05312L10.5654 2.10938C6.16727 2.74279 2.68946 6.24165 2.08594 10.6529L6.22008 10.0798Z" fill="#00B2E3"/>
<path d="M12.004 2.00391C11.5211 2.00391 11.0383 2.04162 10.5781 2.10949L13.6259 8.33805L14.0559 9.20525C14.1691 9.43147 14.3803 9.58227 14.6293 9.61998L18.1071 10.1252C18.5522 10.1931 18.7332 10.7435 18.4088 11.0602L21.2831 8.27019C19.7969 4.59789 16.1984 2.00391 12.004 2.00391Z" fill="#0F6C9F"/>
<path d="M19.4912 3.57238V2.26783H19.0234V2.00391H20.2757V2.26783H19.808V3.57238H19.4912Z" fill="#15537E"/>
<path d="M20.4766 3.57238V2.00391H20.9518L21.2385 3.07469L21.5176 2.00391H21.9929V3.57238H21.6987V2.3357L21.3894 3.57238H21.0801L20.7708 2.3357V3.57238H20.4766Z" fill="#15537E"/>
</svg>
