<svg width="24" height="25" viewBox="0 0 24 25" fill="none" xmlns="http://www.w3.org/2000/svg">
<path d="M20.5354 19.5094C20.2889 19.5094 20.0355 19.4478 19.8095 19.3109L13.0979 15.4364C12.4199 15.0462 11.5775 15.0462 10.8995 15.4364L8.61209 16.7575C7.91354 17.1614 7.02326 16.9218 6.62604 16.2236C6.22198 15.5253 6.46166 14.6354 7.16021 14.2384L9.44764 12.9172C11.0228 12.0068 12.9815 12.0068 14.5566 12.9172L21.2682 16.7917C21.9667 17.1956 22.2064 18.0856 21.8024 18.777C21.5284 19.2424 21.0354 19.5094 20.5354 19.5094Z" fill="#00B4E5"/>
<path d="M3.46429 14.401C2.96435 14.401 2.47126 14.1409 2.20416 13.6754C1.8001 12.9771 2.0398 12.0872 2.73835 11.6902L9.44992 7.81565C11.0251 6.9052 12.9837 6.9052 14.5589 7.81565L16.8463 9.13682C17.5449 9.5407 17.7846 10.4306 17.3805 11.122C16.9764 11.8202 16.0861 12.0598 15.3944 11.6559L13.107 10.3348C12.429 9.94458 11.5867 9.94458 10.9087 10.3348L4.19709 14.2093C3.96424 14.3394 3.71084 14.401 3.46429 14.401Z" fill="#0087E2"/>
<path d="M11.9943 18.7622C11.1109 18.7622 10.2274 18.5363 9.43982 18.0777L7.1524 16.7565C6.45385 16.3526 6.21417 15.4627 6.61823 14.7713C7.0223 14.0731 7.91258 13.8335 8.60428 14.2374L10.8917 15.5586C11.5697 15.9487 12.4121 15.9487 13.0901 15.5586C13.1106 15.5517 13.1243 15.538 13.1449 15.5312L19.1305 12.4028C19.8427 12.0331 20.7262 12.307 21.096 13.0189C21.4658 13.7308 21.1919 14.6139 20.4797 14.9835L14.5214 18.0982C13.7407 18.5363 12.8709 18.7622 11.9943 18.7622Z" fill="#0E6CA0"/>
<path d="M11.9966 23.8604C11.1131 23.8604 10.2297 23.6345 9.44211 23.1759L2.73054 19.3013C2.03199 18.8974 1.79229 18.0075 2.19635 17.3161C2.60041 16.6179 3.49072 16.3783 4.18242 16.7822L10.894 20.6567C11.572 21.0469 12.4143 21.0469 13.0923 20.6567L19.8039 16.7822C20.5025 16.3783 21.3928 16.6179 21.79 17.3161C22.1941 18.0144 21.9544 18.9043 21.2558 19.3013L14.5443 23.1759C13.7635 23.6345 12.8801 23.8604 11.9966 23.8604Z" fill="#FFBE1D"/>
<path d="M20.5377 9.29456C20.2911 9.29456 20.0378 9.23294 19.8118 9.09603L13.1002 5.22149C12.4222 4.8313 11.5798 4.8313 10.9018 5.22149L4.19023 9.09603C3.49168 9.49992 2.60138 9.26032 2.20416 8.56209C1.8001 7.86385 2.0398 6.97394 2.73835 6.5769L9.44992 2.70237C11.0251 1.79192 12.9837 1.79192 14.5589 2.70237L21.2705 6.5769C21.969 6.98079 22.2087 7.87069 21.8047 8.56209C21.5307 9.03442 21.0376 9.29456 20.5377 9.29456Z" fill="#00B4E5"/>
<path d="M11.9966 13.6534C11.1131 13.6534 10.2297 13.4275 9.44211 12.9688L2.73054 9.0943C2.03199 8.69041 1.79229 7.80051 2.19635 7.10912C2.60041 6.41088 3.49072 6.17129 4.18242 6.57517L10.894 10.4497C11.572 10.8399 12.4143 10.8399 13.0923 10.4497L15.3798 9.12852C16.0783 8.72463 16.9686 8.96422 17.3659 9.66246C17.7699 10.3607 17.5302 11.2506 16.8317 11.6477L14.5443 12.9688C13.7704 13.4275 12.8801 13.6534 11.9966 13.6534Z" fill="#18527D"/>
<path d="M8.61437 16.7566L10.7991 15.497L8.61437 14.2374C8.14182 13.9636 7.58027 13.991 7.14196 14.2443C7.11457 14.2579 7.08713 14.2785 7.05974 14.299C7.04604 14.3059 7.03235 14.3196 7.01865 14.3264C6.99811 14.347 6.97073 14.3606 6.95018 14.3812C6.93649 14.3949 6.92279 14.4085 6.90909 14.4154C6.88855 14.4291 6.87484 14.4496 6.85429 14.4702C6.8406 14.4839 6.82005 14.5044 6.80635 14.5181C6.79265 14.5318 6.77896 14.5523 6.76526 14.566C6.74471 14.5865 6.73105 14.6071 6.7105 14.6345C6.6968 14.6481 6.68993 14.6618 6.68308 14.6755C6.66253 14.7029 6.64883 14.7235 6.63514 14.7508C6.62829 14.7645 6.6146 14.785 6.60776 14.7987C6.59406 14.8261 6.58036 14.8467 6.56667 14.874C6.55982 14.8946 6.54614 14.9151 6.53929 14.9357C6.53244 14.9562 6.51872 14.9767 6.51187 14.9973C6.50502 15.0246 6.49818 15.0452 6.48449 15.0726C6.47764 15.0931 6.47078 15.1136 6.47078 15.1273C6.46393 15.1547 6.4571 15.1821 6.45025 15.2095C6.4434 15.23 6.4434 15.2506 6.4434 15.2642C6.43655 15.2916 6.43654 15.319 6.43654 15.3464C6.43654 15.3669 6.42969 15.3875 6.42969 15.408C6.42969 15.4354 6.42969 15.4559 6.42969 15.4833C6.42969 15.5107 6.42969 15.5312 6.42969 15.5586C6.42969 15.5791 6.42969 15.5997 6.43654 15.6202C6.43654 15.6476 6.4434 15.675 6.4434 15.7023C6.4434 15.7229 6.45025 15.7434 6.45025 15.7571C6.4571 15.7845 6.46393 15.8119 6.47078 15.8393C6.47763 15.8598 6.48449 15.8803 6.48449 15.894C6.49134 15.9214 6.49817 15.9419 6.51187 15.9693C6.51872 15.9899 6.52559 16.0104 6.53929 16.0309C6.54614 16.0515 6.55982 16.072 6.56667 16.0925C6.58036 16.1199 6.59406 16.1404 6.60776 16.1678C6.6146 16.1815 6.62829 16.2021 6.63514 16.2158C6.64883 16.2431 6.66938 16.2705 6.68308 16.2911C6.68993 16.3048 6.70365 16.3184 6.7105 16.3321C6.7242 16.3527 6.74471 16.3801 6.76526 16.4006C6.77896 16.4143 6.79265 16.4348 6.80635 16.4485C6.82005 16.469 6.8406 16.4827 6.85429 16.4964C6.87484 16.517 6.88855 16.5307 6.90909 16.5512C6.92279 16.5649 6.93649 16.5786 6.95018 16.5854C6.97073 16.606 6.99811 16.6265 7.01865 16.6402C7.03235 16.647 7.04604 16.6607 7.05974 16.6676C7.08713 16.6881 7.11457 16.7018 7.14196 16.7223C7.58712 17.0098 8.14182 17.0304 8.61437 16.7566Z" fill="#103254"/>
<path d="M15.3878 9.13016L13.2031 10.3897L15.3878 11.6493C15.8604 11.9231 16.4219 11.8957 16.8602 11.6425C16.8876 11.6288 16.915 11.6082 16.9424 11.5877C16.9561 11.5809 16.9698 11.5672 16.9835 11.5603C17.0041 11.5398 17.0315 11.5261 17.052 11.5055C17.0657 11.4919 17.0794 11.4782 17.0931 11.4713C17.1136 11.4576 17.1273 11.4371 17.1479 11.4166C17.1616 11.4029 17.1821 11.3823 17.1958 11.3686C17.2095 11.355 17.2232 11.3344 17.2369 11.3207C17.2575 11.3002 17.2711 11.2796 17.2917 11.2523C17.3054 11.2386 17.3123 11.2249 17.3191 11.2112C17.3396 11.1838 17.3533 11.1633 17.367 11.1359C17.3739 11.1222 17.3876 11.1017 17.3944 11.088C17.4081 11.0606 17.4218 11.04 17.4355 11.0127C17.4424 10.9921 17.456 10.9716 17.4629 10.9511C17.4697 10.9305 17.4835 10.91 17.4903 10.8895C17.4972 10.8621 17.504 10.8415 17.5177 10.8142C17.5245 10.7936 17.5314 10.7731 17.5314 10.7594C17.5383 10.732 17.5451 10.7046 17.5519 10.6772C17.5588 10.6567 17.5588 10.6362 17.5588 10.6225C17.5656 10.5951 17.5656 10.5677 17.5656 10.5403C17.5656 10.5198 17.5725 10.4993 17.5725 10.4787C17.5725 10.4513 17.5725 10.4308 17.5725 10.4034C17.5725 10.3761 17.5725 10.3555 17.5725 10.3281C17.5725 10.3076 17.5725 10.2871 17.5656 10.2665C17.5656 10.2391 17.5588 10.2118 17.5588 10.1844C17.5588 10.1638 17.5519 10.1433 17.5519 10.1296C17.5451 10.1022 17.5383 10.0749 17.5314 10.0475C17.5246 10.0269 17.5177 10.0064 17.5177 9.9927C17.5108 9.96532 17.504 9.94479 17.4903 9.91741C17.4835 9.89687 17.4766 9.87634 17.4629 9.8558C17.456 9.83527 17.4424 9.81471 17.4355 9.79418C17.4218 9.76679 17.4081 9.74627 17.3944 9.71889C17.3876 9.70519 17.3739 9.68465 17.367 9.67096C17.3533 9.64358 17.3328 9.61621 17.3191 9.59567C17.3123 9.58198 17.2985 9.56829 17.2917 9.5546C17.2711 9.53406 17.2575 9.50668 17.2369 9.48614C17.2232 9.47245 17.2095 9.45191 17.1958 9.43822C17.1821 9.41768 17.1616 9.404 17.1479 9.38346C17.1273 9.36293 17.1136 9.34922 17.0931 9.32869C17.0794 9.315 17.0657 9.30131 17.0451 9.29447C17.0246 9.27393 16.9972 9.26023 16.9767 9.23969C16.963 9.23285 16.9493 9.21917 16.9356 9.21233C16.9082 9.19179 16.8808 9.17809 16.8534 9.1644C16.4151 8.88374 15.8604 8.86319 15.3878 9.13016Z" fill="#103254"/>
<path d="M19.8981 4.83874V3.75031H19.5078V3.53125H20.5488V3.75031H20.1584V4.83874H19.8981Z" fill="#18527D"/>
<path d="M20.7188 4.83776V3.52344H21.116L21.3557 4.42019L21.5885 3.52344H21.9858V4.83776H21.7392V3.80408L21.4789 4.83776H21.2255L20.9653 3.80408V4.83776H20.7188Z" fill="#18527D"/>
</svg>
