<svg width="24" height="25" viewBox="0 0 24 25" fill="none" xmlns="http://www.w3.org/2000/svg">
<g clip-path="url(#clip0_2104_5877)">
<path d="M2.67104 8.90527L4.75683 6.81948C5.8388 5.74352 7.2694 5.14844 8.79618 5.14844C9.97432 5.14844 11.0984 5.50308 12.0481 6.16428C11.7596 6.36265 11.4831 6.59106 11.2306 6.84352L9.93224 8.14188C9.57159 7.99161 9.18689 7.91347 8.79618 7.91347C8.0388 7.91347 7.28743 8.20199 6.71038 8.77303L4.62459 10.8588C3.4765 12.0069 3.4765 13.8763 4.62459 15.0244L6.71038 17.1162C7.58197 17.9878 8.86831 18.1982 9.93825 17.7473L11.1705 18.9796C11.447 19.2561 11.7475 19.4965 12.0601 19.7069C11.0803 20.3922 9.93825 20.7348 8.79016 20.7348C7.32951 20.7348 5.86885 20.1758 4.75082 19.0637L2.66503 16.9779C1.59508 15.902 1 14.4714 1 12.9446C1 11.4178 1.59508 9.98724 2.67104 8.90527Z" fill="#FFBE1D"/>
<path d="M21.3266 8.90527L19.2408 6.81948C18.1648 5.74352 16.7282 5.14844 15.2074 5.14844C14.0293 5.14844 12.9053 5.50308 11.9555 6.16428C12.2441 6.36265 12.5206 6.59106 12.773 6.84352L14.0714 8.14188C14.432 7.99161 14.8167 7.91347 15.2074 7.91347C15.9648 7.91347 16.7162 8.20199 17.2932 8.77303L19.373 10.8588C20.5211 12.0069 20.5211 13.8763 19.373 15.0244L17.2872 17.1162C16.4156 17.9878 15.1293 18.1982 14.0594 17.7473L12.8271 18.9796C12.5506 19.2561 12.2501 19.4965 11.9375 19.7069C12.9173 20.3922 14.0594 20.7348 15.2074 20.7348C16.6681 20.7348 18.1288 20.1758 19.2468 19.0637L21.3326 16.9779C22.4085 15.902 23.0036 14.4654 23.0036 12.9386C22.9976 11.4178 22.4085 9.98724 21.3266 8.90527Z" fill="#0087E2"/>
<path d="M12.0275 16.0165L11.0417 15.0307C9.89357 13.8826 9.89357 12.0132 11.0417 10.8651L12.0335 9.87329L10.9214 8.75526C10.6269 8.46072 10.2783 8.2323 9.9116 8.08203L9.0821 8.91154C6.85805 11.1356 6.85805 14.7602 9.0821 16.9842L9.9116 17.8137C10.2662 17.6635 10.6029 17.441 10.8914 17.1525L12.0275 16.0165Z" fill="#0E6CA0"/>
<path d="M11.9688 16.0165L12.9606 15.0247C14.1086 13.8766 14.1086 12.0072 12.9606 10.8591L11.9688 9.86728L13.0808 8.75526C13.3753 8.46072 13.7239 8.2323 14.0906 8.08203L14.9201 8.91154C17.1442 11.1356 17.1442 14.7602 14.9201 16.9842L14.0906 17.8137C13.736 17.6635 13.3994 17.441 13.1108 17.1525L11.9688 16.0165Z" fill="#00B4E5"/>
<path d="M9.875 8.11642C10.2417 8.26068 10.5843 8.47708 10.8788 8.77161L12.0029 9.89565L13.1269 8.77161C13.4154 8.48309 13.7581 8.26068 14.1307 8.11642L12.8324 6.81806C12.5739 6.55959 12.2914 6.33117 12.0029 6.13281C11.7083 6.33117 11.4318 6.55959 11.1734 6.81806L9.875 8.11642Z" fill="#103254"/>
<path d="M14.1307 17.7714C13.7581 17.6272 13.4214 17.4048 13.1269 17.1162L12.0029 15.9922L10.8788 17.1162C10.5843 17.4108 10.2417 17.6272 9.875 17.7714L11.1734 19.0698C11.4318 19.3283 11.7083 19.5567 12.0029 19.755C12.2974 19.5567 12.5739 19.3283 12.8324 19.0698L14.1307 17.7714Z" fill="#18527D"/>
<path d="M19.3769 6.18232V5.32275H19.0703V5.14844H19.8938V5.32275H19.5873V6.18232H19.3769Z" fill="#18527D"/>
<path d="M20.0234 6.18232V5.14844H20.336L20.5223 5.85172L20.7087 5.14844H21.0213V6.18232H20.8289V5.37084L20.6245 6.18232H20.4262L20.2218 5.37084V6.18232H20.0234Z" fill="#18527D"/>
</g>
<defs>
<clipPath id="clip0_2104_5877">
<rect width="22" height="15.5863" fill="white" transform="translate(1 5.14844)"/>
</clipPath>
</defs>
</svg>
