<svg width="24" height="25" viewBox="0 0 24 25" fill="none" xmlns="http://www.w3.org/2000/svg">
<path d="M17.765 8.17022H3.75664C2.7857 8.17022 2 7.38231 2 6.40222C2 5.42213 2.7857 4.64062 3.75664 4.64062H17.7586C18.7296 4.64062 19.5152 5.42854 19.5152 6.40222C19.5152 7.3759 18.7359 8.17022 17.765 8.17022Z" fill="#0087E2"/>
<path d="M17.7647 9.78516H14.2578C14.903 9.78516 15.4332 10.3104 15.4332 10.9638C15.4332 11.6172 14.9094 12.1425 14.2578 12.1425H17.7647C18.4099 12.1425 18.94 11.6172 18.94 10.9638C18.94 10.3104 18.4099 9.78516 17.7647 9.78516Z" fill="#00B4E5"/>
<path d="M17.7668 13.75H10.9766C11.6217 13.75 12.1519 14.2753 12.1519 14.9287C12.1519 15.5821 11.6281 16.1073 10.9766 16.1073H17.7668C18.4119 16.1073 18.9421 15.5821 18.9421 14.9287C18.9421 14.2753 18.4119 13.75 17.7668 13.75Z" fill="#00B4E5"/>
<path d="M17.765 21.2458H3.75664C2.7857 21.2458 2 20.4579 2 19.4843C2 18.5106 2.7857 17.7227 3.75664 17.7227H17.7586C18.7296 17.7227 19.5152 18.5106 19.5152 19.4843C19.5152 20.4579 18.7359 21.2458 17.765 21.2458Z" fill="#FFBE1D"/>
<path d="M14.275 12.1347H10.3082C9.663 12.1347 9.13281 11.6094 9.13281 10.956C9.13281 10.3026 9.65661 9.77734 10.3082 9.77734H14.275C14.9201 9.77734 15.4503 10.3026 15.4503 10.956C15.4503 11.6094 14.9201 12.1347 14.275 12.1347Z" fill="#0E6CA0"/>
<path d="M11.0015 16.0995H7.03472C6.38956 16.0995 5.85938 15.5742 5.85938 14.9209C5.85938 14.2675 6.38317 13.7422 7.03472 13.7422H11.0015C11.6467 13.7422 12.1769 14.2675 12.1769 14.9209C12.1769 15.5742 11.6531 16.0995 11.0015 16.0995Z" fill="#103254"/>
<path d="M20.134 20.9691V19.9955H19.7891V19.7969H20.7217V19.9955H20.3767V20.9691H20.134Z" fill="#18527D"/>
<path d="M20.8672 20.9691V19.7969H21.2185L21.4293 20.5976L21.6401 19.7969H21.9978V20.9691H21.7806V20.0467L21.5507 20.9691H21.3207L21.0908 20.0467V20.9691H20.8672V20.9691Z" fill="#18527D"/>
</svg>
