<svg width="24" height="25" viewBox="0 0 24 25" fill="none" xmlns="http://www.w3.org/2000/svg">
<path d="M4.14511 8.84674V7.88053C4.14511 7.12641 3.53212 6.50781 2.77178 6.50781C2.01143 6.50781 1.39844 7.12052 1.39844 7.88053V9.9897C1.39844 10.7438 2.01143 11.3624 2.77178 11.3624C3.64411 11.3624 4.3514 12.0694 4.3514 12.9413C4.3514 13.8133 3.64411 14.5203 2.77178 14.5203C2.01732 14.5203 1.39844 15.133 1.39844 15.893V18.0021C1.39844 18.7563 2.01143 19.3749 2.77178 19.3749C3.53212 19.3749 4.14511 18.7621 4.14511 18.0021V17.0359C4.56949 16.8945 4.97029 16.6824 5.32394 16.4232V9.45945C4.97029 9.20022 4.56949 8.99403 4.14511 8.84674Z" fill="#15537E"/>
<path d="M6.67021 19.3761C5.91576 19.3761 5.29688 18.7634 5.29688 18.0034V9.44303C5.29688 8.68891 5.90987 8.07031 6.67021 8.07031C7.43056 8.07031 8.04355 8.68302 8.04355 9.44303V18.0034C8.04355 18.7634 7.42466 19.3761 6.67021 19.3761Z" fill="#3281C4"/>
<path d="M18.3733 19.3768C17.6189 19.3768 17 18.7641 17 18.0041V7.88836C17 7.13424 17.613 6.51562 18.3733 6.51562C19.1337 6.51562 19.7467 7.12835 19.7467 7.88836V18.01C19.7467 18.7641 19.1337 19.3768 18.3733 19.3768Z" fill="#00B2E3"/>
<path d="M14.4749 16.6844C13.7204 16.6844 13.1016 16.0717 13.1016 15.3117V7.88836C13.1016 7.13424 13.7146 6.51562 14.4749 6.51562C15.2352 6.51562 15.8482 7.12835 15.8482 7.88836V15.3175C15.8423 16.0717 15.2294 16.6844 14.4749 16.6844Z" fill="#0F6C9F"/>
<path d="M10.5765 19.3744C9.822 19.3744 9.20312 18.7617 9.20312 18.0017V12.6227C9.20312 11.8686 9.81611 11.25 10.5765 11.25C11.3309 11.25 11.9498 11.8627 11.9498 12.6227V18.0017C11.9439 18.7617 11.3309 19.3744 10.5765 19.3744Z" fill="#FDBC1F"/>
<path d="M7.0887 12.9488C7.0887 14.3863 6.3814 15.6648 5.29688 16.4483V9.44922C6.3814 10.2328 7.0887 11.5054 7.0887 12.9488Z" fill="#0F3253"/>
<path d="M21.0936 7.57021V6.69238H20.7812V6.51562H21.6182V6.69238H21.3058V7.57021H21.0936Z" fill="#15537E"/>
<path d="M21.75 7.57021V6.51562H22.0683L22.2628 7.23439L22.4514 6.51562H22.7697V7.57021H22.5693V6.73951L22.3571 7.57021H22.1508L21.9445 6.73951V7.57021H21.75Z" fill="#15537E"/>
</svg>
