<svg width="24" height="14" viewBox="0 0 24 14" fill="none" xmlns="http://www.w3.org/2000/svg">
<path d="M19.9072 5.12891H11.1328C12.2159 5.12891 13.053 5.93952 13.053 6.93319C13.053 7.93209 12.2368 8.73749 11.1328 8.73749H19.9072C20.9065 8.73749 21.7123 7.92686 21.7123 6.93319C21.7175 5.93952 20.9065 5.12891 19.9072 5.12891Z" fill="#00B2E3"/>
<path d="M19.906 13.8781H14.8989C13.8995 13.8781 13.0938 13.0675 13.0938 12.0738C13.0938 11.0802 13.9047 10.2695 14.8989 10.2695H19.906C20.9054 10.2695 21.7111 11.0802 21.7111 12.0738C21.7111 13.0675 20.9054 13.8781 19.906 13.8781Z" fill="#FDBC1F"/>
<path d="M15.2099 1.80429C15.2099 0.805386 16 0 17.1249 0H1.8051C0.805754 0 0 0.810616 0 1.80429C0 2.80318 0.810986 3.60859 1.8051 3.60859H17.1301C16.0209 3.60859 15.2099 2.79795 15.2099 1.80429Z" fill="#3281C4"/>
<path d="M19.9044 3.60859H16.9692C15.9698 3.60859 15.1641 2.79795 15.1641 1.80429C15.1641 0.805386 15.9751 0 16.9692 0H19.9044C20.9038 0 21.7095 0.810616 21.7095 1.80429C21.7147 2.79795 20.9038 3.60859 19.9044 3.60859Z" fill="#0F3253"/>
<path d="M11.2872 8.74532H8.35198C7.35263 8.74532 6.54688 7.93469 6.54688 6.94102C6.54688 5.94212 7.35786 5.13672 8.35198 5.13672H11.2872C12.2866 5.13672 13.0923 5.94735 13.0923 6.94102C13.0923 7.93469 12.2866 8.74532 11.2872 8.74532Z" fill="#0F6C9F"/>
<path d="M22.2723 1.08256V0.183032H21.9531V0H22.8164V0.183032H22.4973V1.08256H22.2723Z" fill="#15537E"/>
<path d="M22.9453 1.08256V0H23.2749L23.4738 0.737393L23.6674 0H23.997V1.08256H23.7929V0.230098L23.5784 1.08256H23.3691L23.1546 0.230098V1.08256H22.9453Z" fill="#15537E"/>
</svg>
