<svg width="24" height="24" viewBox="0 0 24 24" fill="none" xmlns="http://www.w3.org/2000/svg">
<g clip-path="url(#clip0_2104_5703)">
<path d="M2.04264 8.81713C2 8.77449 2 8.77449 2 8.73184C2 8.6892 2 8.6892 2.04264 8.64656C2.81023 7.53781 3.87633 6.59965 5.24094 5.8747C6.47761 5.1924 7.79957 4.72331 9.24947 4.46745C9.84648 4.33952 10.4435 4.29688 10.9979 4.29688C11.7655 4.29688 12.4904 4.38216 13.1727 4.55274C14.5373 4.89389 15.6461 5.53355 16.6269 6.42907C18.162 7.92161 18.9723 9.7553 19.0149 11.8875C19.9957 11.8875 20.9339 11.9728 21.8721 12.1434C21.9147 12.1434 22 12.186 22 12.2286C22 12.2713 22 12.2713 22 12.2713V12.3139C21.8294 13.1242 21.403 13.5506 20.806 13.5506H19.8678L18.9296 13.508V13.5506C18.7164 14.702 18.0768 16.1519 17.0959 17.8576C16.2857 19.3075 15.4328 20.4163 14.6226 21.2265C13.4712 22.3353 12.2772 23.1028 11.0405 23.5719C10.2303 23.8704 9.46269 23.9984 8.73774 23.9984C8.09808 23.9984 7.45842 23.8704 6.86141 23.6572C5.32623 23.1028 4.30277 22.25 3.87633 21.0986C3.70576 20.6295 3.62047 20.1604 3.62047 19.6913C3.62047 19.5208 3.62047 19.3075 3.66311 19.137C3.7484 18.4973 4.00426 17.9003 4.4307 17.3459C5.19829 16.4077 6.39232 15.4696 8.05544 14.5741H8.09808L8.18337 14.4035C8.95096 12.4419 9.88913 10.2244 10.9979 7.79368C10.3582 7.92161 9.84648 8.04954 9.46269 8.17747C8.73774 8.39069 7.88486 8.81713 6.9467 9.32886C6.1791 9.7553 5.53945 10.0112 4.98507 10.0964C4.85714 10.1391 4.68657 10.1391 4.55864 10.1391C3.53518 10.0964 2.34115 9.20093 2.04264 8.81713ZM9.20682 20.1178C8.22601 19.3075 7.629 18.5399 7.37313 17.7724C7.33049 17.6018 7.28785 17.4312 7.28785 17.2606C6.86141 17.5165 6.52026 17.7297 6.26439 17.9429C5.92324 18.2414 5.66738 18.4973 5.53945 18.7958C5.41151 19.0517 5.32623 19.2649 5.32623 19.4781C5.32623 19.9472 5.66738 20.5016 6.39232 21.1412C6.64819 21.3544 7.20256 21.3544 7.67164 21.3971C7.88486 21.3971 8.05544 21.4397 8.22601 21.4397C8.43923 21.4397 8.60981 21.4397 8.78038 21.3971C10.4435 21.0986 11.936 20.2883 13.258 18.8811C14.58 17.5165 15.6461 15.8107 16.4136 13.8065C14.4947 14.1903 12.661 14.7446 10.9126 15.4696C10.4009 17.0901 9.93177 18.6679 9.50533 20.2031C9.46269 20.2883 9.42004 20.331 9.3774 20.331H9.33476C9.3774 20.2457 9.29211 20.2031 9.20682 20.1178ZM16.7548 11.9728C16.8401 11.6316 16.8827 11.3331 16.8827 11.0346C16.8827 10.9067 16.8827 10.7788 16.8401 10.6508C16.7122 9.71265 16.1151 8.90242 15.049 8.13483C14.4094 7.75103 13.855 7.53781 13.3859 7.40988C13.3859 7.49517 13.4286 7.58046 13.4286 7.66574V7.70839C13.4286 7.92161 13.3859 8.22012 13.3006 8.51862L13.1727 8.94506L13.0448 9.3715L12.1493 11.8875L11.8081 12.9536L12.4478 12.783C13.8124 12.3566 15.2623 12.1007 16.7548 11.9728Z" fill="#272833"/>
</g>
<defs>
<clipPath id="clip0_2104_5703">
<rect width="20" height="19.7015" fill="white" transform="translate(2 4.29688)"/>
</clipPath>
</defs>
</svg>
