<svg width="20" height="20" viewBox="0 0 20 20" fill="none" xmlns="http://www.w3.org/2000/svg">
<path d="M1.66406 13.3346C1.66406 15.1771 1.66406 16.0983 2.24895 16.7133C2.3425 16.8117 2.4456 16.9027 2.5571 16.9852C3.25414 17.5013 4.29819 17.5013 6.38629 17.5013H6.94184C9.02998 17.5013 10.074 17.5013 10.7711 16.9852C10.8825 16.9027 10.9856 16.8117 11.0791 16.7133C11.6641 16.0983 11.6641 15.1771 11.6641 13.3346C11.6641 11.4922 11.6641 10.571 11.0791 9.95597C10.9856 9.85755 10.8825 9.76655 10.7711 9.68405C10.074 9.16797 9.02998 9.16797 6.94184 9.16797H6.38629C4.29819 9.16797 3.25414 9.16797 2.5571 9.68405C2.4456 9.76655 2.3425 9.85755 2.24895 9.95597C1.66406 10.571 1.66406 11.4922 1.66406 13.3346Z" stroke="#272833" stroke-width="1.25" stroke-linecap="round" stroke-linejoin="round"/>
<path d="M8.33594 6.66667C8.33594 4.82422 8.33594 3.90301 8.92085 3.28797C9.01435 3.1896 9.11752 3.09862 9.22894 3.01607C9.92602 2.5 10.97 2.5 13.0582 2.5H13.6137C15.7019 2.5 16.7459 2.5 17.4429 3.01607C17.5544 3.09862 17.6575 3.1896 17.751 3.28797C18.3359 3.90301 18.3359 4.82422 18.3359 6.66667C18.3359 8.50907 18.3359 9.43032 17.751 10.0453C17.6575 10.1437 17.5544 10.2347 17.4429 10.3172C16.8106 10.7854 15.8929 10.8289 14.1693 10.8329" stroke="#272833" stroke-width="1.25" stroke-linecap="round" stroke-linejoin="round"/>
<path d="M1.66406 12.5H11.6641" stroke="#272833" stroke-width="1.25" stroke-linecap="round"/>
<path d="M8.33594 5.83203H18.3359" stroke="#272833" stroke-width="1.25" stroke-linecap="round"/>
<path d="M1.66406 7.5C1.66406 4.73572 3.89978 2.5 6.66406 2.5L5.94978 3.92858" stroke="#272833" stroke-width="1.25" stroke-linecap="round" stroke-linejoin="round"/>
<path d="M18.3359 12.5C18.3359 15.2642 16.1002 17.5 13.3359 17.5L14.0502 16.0714" stroke="#272833" stroke-width="1.25" stroke-linecap="round" stroke-linejoin="round"/>
</svg>
